<svg fill="#6b6b6b" viewBox="0 0 32 32" version="1.1" xmlns="http://www.w3.org/2000/svg"><g id="SVGRepo_bgCarrier" stroke-width="0"></g><g id="SVGRepo_tracerCarrier" stroke-linecap="round" stroke-linejoin="round"></g><g id="SVGRepo_iconCarrier"> <title>alt-circle</title> <path d="M0 16q0-3.232 1.28-6.208t3.392-5.12 5.12-3.392 6.208-1.28q3.264 0 6.24 1.28t5.088 3.392 3.392 5.12 1.28 6.208q0 3.264-1.28 6.208t-3.392 5.12-5.12 3.424-6.208 1.248-6.208-1.248-5.12-3.424-3.392-5.12-1.28-6.208zM8 16q0 3.328 2.336 5.664t5.664 2.336 5.664-2.336 2.336-5.664-2.336-5.632-5.664-2.368-5.664 2.368-2.336 5.632z"></path> </g></svg>